<?xml version="1.0" encoding="UTF-8" standalone="no"?>
<!DOCTYPE svg PUBLIC "-//W3C//DTD SVG 1.1//EN" "http://www.w3.org/Graphics/SVG/1.1/DTD/svg11.dtd">
<svg version="1.1" xmlns="http://www.w3.org/2000/svg" xmlns:xlink="http://www.w3.org/1999/xlink" preserveAspectRatio="xMidYMid meet" viewBox="0 0 640 640" width="640" height="640"><defs><path d="M210.91 60L72.73 60L29.09 103.64L29.09 161.82L610.91 161.82L610.91 103.64L247.27 103.64L210.91 60Z" id="dwTR7XFU8"></path><path d="M640 161.82C640 161.82 640 161.82 640 161.82C640 412.73 640 552.12 640 580C640 580 640 580 640 580C256 580 42.67 580 0 580C0 580 0 580 0 580C0 329.09 0 189.7 0 161.82C0 161.82 0 161.82 0 161.82C384 161.82 597.33 161.82 640 161.82Z" id="aEijFXZbl"></path><path d="M574.54 132.73C574.54 132.73 574.54 132.73 574.54 132.73C574.54 150.18 574.54 159.88 574.54 161.82C574.54 161.82 574.54 161.82 574.54 161.82C269.09 161.82 99.39 161.82 65.45 161.82C65.45 161.82 65.45 161.82 65.45 161.82C65.45 144.37 65.45 134.67 65.45 132.73C65.45 132.73 65.45 132.73 65.45 132.73C370.9 132.73 540.6 132.73 574.54 132.73Z" id="n1aL5onB8"></path><path d="M308.87 263.03C343.33 366.5 260.37 374.73 316.61 455.65C277.31 452.55 261.63 423.52 261.63 402.22C261.63 358.86 293.48 347.53 297.35 296.91C291.15 291.29 286.61 289.16 286.61 289.16C266.86 344.92 225.72 347.24 225.72 402.12C225.72 451.39 268.31 488.66 320 488.66C374.98 488.66 414.28 445.49 414.28 401.83C414.09 329.04 343.52 342.59 326.29 244.25C323 246.57 313.22 253.54 308.87 263.03ZM340.62 352.66C387.66 372.89 387.66 427.58 340.62 448.2C362.49 416.84 362.49 383.44 340.62 352.66Z" id="djKDr3TJB"></path></defs><g><g><g><use xlink:href="#dwTR7XFU8" opacity="1" fill="#0d91ba" fill-opacity="1"></use><g><use xlink:href="#dwTR7XFU8" opacity="1" fill-opacity="0" stroke="#000000" stroke-width="1" stroke-opacity="0"></use></g></g><g><use xlink:href="#aEijFXZbl" opacity="1" fill="#25b6d2" fill-opacity="1"></use><g><use xlink:href="#aEijFXZbl" opacity="1" fill-opacity="0" stroke="#000000" stroke-width="1" stroke-opacity="0"></use></g></g><g><use xlink:href="#n1aL5onB8" opacity="1" fill="#ffffff" fill-opacity="1"></use><g><use xlink:href="#n1aL5onB8" opacity="1" fill-opacity="0" stroke="#000000" stroke-width="1" stroke-opacity="0"></use></g></g><g><use xlink:href="#djKDr3TJB" opacity="1" fill="#0d91ba" fill-opacity="1"></use><g><use xlink:href="#djKDr3TJB" opacity="1" fill-opacity="0" stroke="#000000" stroke-width="1" stroke-opacity="0"></use></g></g></g></g></svg>